ply
format ascii 1.0
element vertex 343
property float end_x
property float end_y
property float end_z
property int path_id
property int group_id
end_header
1.137600 -38.018140 0.000000 0 0
1.297146 -28.226971 0.000000 1 0
1.446811 -21.026504 0.000000 2 0
1.455949 -20.411012 0.000000 3 0
1.590772 -15.262598 0.000000 4 0
1.586764 -14.792799 0.000000 5 0
1.717064 -11.124121 0.000000 6 0
0.991101 -76.467726 0.000000 7 0
1.066417 -74.665713 0.000000 8 0
1.361147 -41.819269 0.000000 9 0
1.509838 -30.991662 0.000000 10 0
1.645463 -23.026336 0.000000 11 0
1.634665 -22.397299 0.000000 12 0
1.758197 -16.693263 0.000000 13 0
1.239532 -86.984495 0.000000 14 0
1.307129 -85.193322 0.000000 15 0
1.385161 -83.333382 0.000000 16 0
1.565417 -61.485074 0.000000 17 0
1.691591 -45.389821 0.000000 18 0
1.796502 -33.555169 0.000000 19 0
1.897581 -24.858732 0.000000 20 0
2.157531 -52.925307 0.000000 21 0
2.229880 -69.468269 0.000000 22 0
2.452572 -91.104881 0.000000 23 0
3.000000 -90.000000 0.000000 24 0
2.452572 -88.895119 0.000000 25 0
2.229880 -65.531731 0.000000 26 0
2.157531 -48.324693 0.000000 27 0
1.897581 -32.094393 0.000000 28 0
1.796502 -42.382331 0.000000 29 0
1.691591 -55.860179 0.000000 30 0
1.565417 -73.514926 0.000000 31 0
1.385161 -96.666618 0.000000 32 0
1.307129 -94.806678 0.000000 33 0
1.239532 -93.015505 0.000000 34 0
1.758197 -26.021581 0.000000 35 0
1.634665 -34.555826 0.000000 36 0
1.645463 -33.926789 0.000000 37 0
1.509838 -44.945838 0.000000 38 0
1.361147 -59.430731 0.000000 39 0
1.066417 -105.334287 0.000000 40 0
0.991101 -103.532274 0.000000 41 0
1.717064 -20.912012 0.000000 42 0
1.586764 -27.922045 0.000000 43 0
1.590772 -27.452245 0.000000 44 0
1.455949 -36.542113 0.000000 45 0
1.446811 -35.926621 0.000000 46 0
1.297146 -47.710529 0.000000 47 0
1.137600 -63.231860 0.000000 48 0
1.137600 -21.143140 0.000000 49 1
1.297146 -15.570721 0.000000 50 1
1.446811 -11.534317 0.000000 51 1
1.455949 -10.918824 0.000000 52 1
1.590772 -8.143458 0.000000 53 1
1.586764 -7.673658 0.000000 54 1
1.717064 -5.784765 0.000000 55 1
0.991101 -46.467726 0.000000 56 1
1.066417 -44.665713 0.000000 57 1
1.361147 -24.944269 0.000000 58 1
1.509838 -18.335412 0.000000 59 1
1.645463 -13.534148 0.000000 60 1
1.634665 -12.905112 0.000000 61 1
1.758197 -9.574122 0.000000 62 1
1.239532 -56.984495 0.000000 63 1
1.307129 -55.193322 0.000000 64 1
1.385161 -53.333382 0.000000 65 1
1.565417 -38.985074 0.000000 66 1
1.691591 -28.514821 0.000000 67 1
1.796502 -20.898919 0.000000 68 1
1.897581 -15.366545 0.000000 69 1
2.157531 -36.050307 0.000000 70 1
2.229880 -46.968269 0.000000 71 1
2.452572 -61.104881 0.000000 72 1
3.000000 -60.000000 0.000000 73 1
2.452572 -58.895119 0.000000 74 1
2.229880 -43.031731 0.000000 75 1
2.157531 -31.449693 0.000000 76 1
1.897581 -22.602205 0.000000 77 1
1.796502 -29.726081 0.000000 78 1
1.691591 -38.985179 0.000000 79 1
1.565417 -51.014926 0.000000 80 1
1.385161 -66.666618 0.000000 81 1
1.307129 -64.806678 0.000000 82 1
1.239532 -63.015505 0.000000 83 1
1.758197 -18.902441 0.000000 84 1
1.634665 -25.063638 0.000000 85 1
1.645463 -24.434602 0.000000 86 1
1.509838 -32.289588 0.000000 87 1
1.361147 -42.555731 0.000000 88 1
1.066417 -75.334287 0.000000 89 1
0.991101 -73.532274 0.000000 90 1
1.717064 -15.572657 0.000000 91 1
1.586764 -20.802904 0.000000 92 1
1.590772 -20.333105 0.000000 93 1
1.455949 -27.049926 0.000000 94 1
1.446811 -26.434433 0.000000 95 1
1.297146 -35.054279 0.000000 96 1
1.137600 -46.356860 0.000000 97 1
1.137600 -4.268140 0.000000 98 2
1.297146 -2.914471 0.000000 99 2
1.446811 -2.042129 0.000000 100 2
1.455949 -1.426637 0.000000 101 2
1.590772 -1.024317 0.000000 102 2
1.586764 -0.554517 0.000000 103 2
1.717064 -0.445410 0.000000 104 2
0.991101 -16.467726 0.000000 105 2
1.066417 -14.665713 0.000000 106 2
1.361147 -8.069269 0.000000 107 2
1.509838 -5.679162 0.000000 108 2
1.645463 -4.041961 0.000000 109 2
1.634665 -3.412924 0.000000 110 2
1.758197 -2.454981 0.000000 111 2
1.239532 -26.984495 0.000000 112 2
1.307129 -25.193322 0.000000 113 2
1.385161 -23.333382 0.000000 114 2
1.565417 -16.485074 0.000000 115 2
1.691591 -11.639821 0.000000 116 2
1.796502 -8.242669 0.000000 117 2
1.897581 -5.874357 0.000000 118 2
2.157531 -19.175307 0.000000 119 2
2.229880 -24.468269 0.000000 120 2
2.452572 -31.104881 0.000000 121 2
3.000000 -30.000000 0.000000 122 2
2.452572 -28.895119 0.000000 123 2
2.229880 -20.531731 0.000000 124 2
2.157531 -14.574693 0.000000 125 2
1.897581 -13.110018 0.000000 126 2
1.796502 -17.069831 0.000000 127 2
1.691591 -22.110179 0.000000 128 2
1.565417 -28.514926 0.000000 129 2
1.385161 -36.666618 0.000000 130 2
1.307129 -34.806678 0.000000 131 2
1.239532 -33.015505 0.000000 132 2
1.758197 -11.783300 0.000000 133 2
1.634665 -15.571451 0.000000 134 2
1.645463 -14.942414 0.000000 135 2
1.509838 -19.633338 0.000000 136 2
1.361147 -25.680731 0.000000 137 2
1.066417 -45.334287 0.000000 138 2
0.991101 -43.532274 0.000000 139 2
1.717064 -10.233301 0.000000 140 2
1.586764 -13.683764 0.000000 141 2
1.590772 -13.213964 0.000000 142 2
1.455949 -17.557738 0.000000 143 2
1.446811 -16.942246 0.000000 144 2
1.297146 -22.398029 0.000000 145 2
1.137600 -29.481860 0.000000 146 2
1.137600 12.606860 0.000000 147 3
1.297146 9.741779 0.000000 148 3
1.446811 7.450058 0.000000 149 3
1.455949 8.065551 0.000000 150 3
1.590772 6.094824 0.000000 151 3
1.586764 6.564623 0.000000 152 3
1.717064 4.893946 0.000000 153 3
0.991101 13.532274 0.000000 154 3
1.066417 15.334287 0.000000 155 3
1.361147 8.805731 0.000000 156 3
1.509838 6.977088 0.000000 157 3
1.645463 5.450227 0.000000 158 3
1.634665 6.079263 0.000000 159 3
1.758197 4.664159 0.000000 160 3
1.239532 3.015505 0.000000 161 3
1.307129 4.806678 0.000000 162 3
1.385161 6.666618 0.000000 163 3
1.565417 6.014926 0.000000 164 3
1.691591 5.235179 0.000000 165 3
1.796502 4.413581 0.000000 166 3
1.897581 3.617830 0.000000 167 3
2.157531 -2.300307 0.000000 168 3
2.229880 -1.968269 0.000000 169 3
2.452572 -1.104881 0.000000 170 3
3.000000 0.000000 0.000000 171 3
2.452572 1.104881 0.000000 172 3
2.229880 1.968269 0.000000 173 3
2.157531 2.300307 0.000000 174 3
1.897581 -3.617830 0.000000 175 3
1.796502 -4.413581 0.000000 176 3
1.691591 -5.235179 0.000000 177 3
1.565417 -6.014926 0.000000 178 3
1.385161 -6.666618 0.000000 179 3
1.307129 -4.806678 0.000000 180 3
1.239532 -3.015505 0.000000 181 3
1.758197 -4.664159 0.000000 182 3
1.634665 -6.079263 0.000000 183 3
1.645463 -5.450227 0.000000 184 3
1.509838 -6.977088 0.000000 185 3
1.361147 -8.805731 0.000000 186 3
1.066417 -15.334287 0.000000 187 3
0.991101 -13.532274 0.000000 188 3
1.717064 -4.893946 0.000000 189 3
1.586764 -6.564623 0.000000 190 3
1.590772 -6.094824 0.000000 191 3
1.455949 -8.065551 0.000000 192 3
1.446811 -7.450058 0.000000 193 3
1.297146 -9.741779 0.000000 194 3
1.137600 -12.606860 0.000000 195 3
1.137600 29.481860 0.000000 196 4
1.297146 22.398029 0.000000 197 4
1.446811 16.942246 0.000000 198 4
1.455949 17.557738 0.000000 199 4
1.590772 13.213964 0.000000 200 4
1.586764 13.683764 0.000000 201 4
1.717064 10.233301 0.000000 202 4
0.991101 43.532274 0.000000 203 4
1.066417 45.334287 0.000000 204 4
1.361147 25.680731 0.000000 205 4
1.509838 19.633338 0.000000 206 4
1.645463 14.942414 0.000000 207 4
1.634665 15.571451 0.000000 208 4
1.758197 11.783300 0.000000 209 4
1.239532 33.015505 0.000000 210 4
1.307129 34.806678 0.000000 211 4
1.385161 36.666618 0.000000 212 4
1.565417 28.514926 0.000000 213 4
1.691591 22.110179 0.000000 214 4
1.796502 17.069831 0.000000 215 4
1.897581 13.110018 0.000000 216 4
2.157531 14.574693 0.000000 217 4
2.229880 20.531731 0.000000 218 4
2.452572 28.895119 0.000000 219 4
3.000000 30.000000 0.000000 220 4
2.452572 31.104881 0.000000 221 4
2.229880 24.468269 0.000000 222 4
2.157531 19.175307 0.000000 223 4
1.897581 5.874357 0.000000 224 4
1.796502 8.242669 0.000000 225 4
1.691591 11.639821 0.000000 226 4
1.565417 16.485074 0.000000 227 4
1.385161 23.333382 0.000000 228 4
1.307129 25.193322 0.000000 229 4
1.239532 26.984495 0.000000 230 4
1.758197 2.454981 0.000000 231 4
1.634665 3.412924 0.000000 232 4
1.645463 4.041961 0.000000 233 4
1.509838 5.679162 0.000000 234 4
1.361147 8.069269 0.000000 235 4
1.066417 14.665713 0.000000 236 4
0.991101 16.467726 0.000000 237 4
1.717064 0.445410 0.000000 238 4
1.586764 0.554517 0.000000 239 4
1.590772 1.024317 0.000000 240 4
1.455949 1.426637 0.000000 241 4
1.446811 2.042129 0.000000 242 4
1.297146 2.914471 0.000000 243 4
1.137600 4.268140 0.000000 244 4
1.137600 46.356860 0.000000 245 5
1.297146 35.054279 0.000000 246 5
1.446811 26.434433 0.000000 247 5
1.455949 27.049926 0.000000 248 5
1.590772 20.333105 0.000000 249 5
1.586764 20.802904 0.000000 250 5
1.717064 15.572657 0.000000 251 5
0.991101 73.532274 0.000000 252 5
1.066417 75.334287 0.000000 253 5
1.361147 42.555731 0.000000 254 5
1.509838 32.289588 0.000000 255 5
1.645463 24.434602 0.000000 256 5
1.634665 25.063638 0.000000 257 5
1.758197 18.902441 0.000000 258 5
1.239532 63.015505 0.000000 259 5
1.307129 64.806678 0.000000 260 5
1.385161 66.666618 0.000000 261 5
1.565417 51.014926 0.000000 262 5
1.691591 38.985179 0.000000 263 5
1.796502 29.726081 0.000000 264 5
1.897581 22.602205 0.000000 265 5
2.157531 31.449693 0.000000 266 5
2.229880 43.031731 0.000000 267 5
2.452572 58.895119 0.000000 268 5
3.000000 60.000000 0.000000 269 5
2.452572 61.104881 0.000000 270 5
2.229880 46.968269 0.000000 271 5
2.157531 36.050307 0.000000 272 5
1.897581 15.366545 0.000000 273 5
1.796502 20.898919 0.000000 274 5
1.691591 28.514821 0.000000 275 5
1.565417 38.985074 0.000000 276 5
1.385161 53.333382 0.000000 277 5
1.307129 55.193322 0.000000 278 5
1.239532 56.984495 0.000000 279 5
1.758197 9.574122 0.000000 280 5
1.634665 12.905112 0.000000 281 5
1.645463 13.534148 0.000000 282 5
1.509838 18.335412 0.000000 283 5
1.361147 24.944269 0.000000 284 5
1.066417 44.665713 0.000000 285 5
0.991101 46.467726 0.000000 286 5
1.717064 5.784765 0.000000 287 5
1.586764 7.673658 0.000000 288 5
1.590772 8.143458 0.000000 289 5
1.455949 10.918824 0.000000 290 5
1.446811 11.534317 0.000000 291 5
1.297146 15.570721 0.000000 292 5
1.137600 21.143140 0.000000 293 5
1.137600 63.231860 0.000000 294 6
1.297146 47.710529 0.000000 295 6
1.446811 35.926621 0.000000 296 6
1.455949 36.542113 0.000000 297 6
1.590772 27.452245 0.000000 298 6
1.586764 27.922045 0.000000 299 6
1.717064 20.912012 0.000000 300 6
0.991101 103.532274 0.000000 301 6
1.066417 105.334287 0.000000 302 6
1.361147 59.430731 0.000000 303 6
1.509838 44.945838 0.000000 304 6
1.645463 33.926789 0.000000 305 6
1.634665 34.555826 0.000000 306 6
1.758197 26.021581 0.000000 307 6
1.239532 93.015505 0.000000 308 6
1.307129 94.806678 0.000000 309 6
1.385161 96.666618 0.000000 310 6
1.565417 73.514926 0.000000 311 6
1.691591 55.860179 0.000000 312 6
1.796502 42.382331 0.000000 313 6
1.897581 32.094393 0.000000 314 6
2.157531 48.324693 0.000000 315 6
2.229880 65.531731 0.000000 316 6
2.452572 88.895119 0.000000 317 6
3.000000 90.000000 0.000000 318 6
2.452572 91.104881 0.000000 319 6
2.229880 69.468269 0.000000 320 6
2.157531 52.925307 0.000000 321 6
1.897581 24.858732 0.000000 322 6
1.796502 33.555169 0.000000 323 6
1.691591 45.389821 0.000000 324 6
1.565417 61.485074 0.000000 325 6
1.385161 83.333382 0.000000 326 6
1.307129 85.193322 0.000000 327 6
1.239532 86.984495 0.000000 328 6
1.758197 16.693263 0.000000 329 6
1.634665 22.397299 0.000000 330 6
1.645463 23.026336 0.000000 331 6
1.509838 30.991662 0.000000 332 6
1.361147 41.819269 0.000000 333 6
1.066417 74.665713 0.000000 334 6
0.991101 76.467726 0.000000 335 6
1.717064 11.124121 0.000000 336 6
1.586764 14.792799 0.000000 337 6
1.590772 15.262598 0.000000 338 6
1.455949 20.411012 0.000000 339 6
1.446811 21.026504 0.000000 340 6
1.297146 28.226971 0.000000 341 6
1.137600 38.018140 0.000000 342 6
