ply
format ascii 1.0
element vertex 707
property float x
property float y
property float z
property int group_id
end_header
0.000000 0.000000 0 0
0.009999 -0.000157 0 0
0.019990 -0.000628 0 0
0.029967 -0.001413 0 0
0.039921 -0.002512 0 0
0.049846 -0.003923 0 0
0.059734 -0.005646 0 0
0.069577 -0.007681 0 0
0.079369 -0.010027 0 0
0.089102 -0.012681 0 0
0.098769 -0.015643 0 0
0.108362 -0.018912 0 0
0.117874 -0.022486 0 0
0.127299 -0.026362 0 0
0.136628 -0.030540 0 0
0.145855 -0.035017 0 0
0.154973 -0.039790 0 0
0.163975 -0.044858 0 0
0.172853 -0.050218 0 0
0.181601 -0.055868 0 0
0.190211 -0.061803 0 0
0.198678 -0.068023 0 0
0.206994 -0.074522 0 0
0.215152 -0.081299 0 0
0.223146 -0.088350 0 0
0.230970 -0.095671 0 0
0.238616 -0.103258 0 0
0.246079 -0.111109 0 0
0.253352 -0.119218 0 0
0.260428 -0.127582 0 0
0.267302 -0.136197 0 0
0.273967 -0.145058 0 0
0.280418 -0.154161 0 0
0.286648 -0.163501 0 0
0.292652 -0.173074 0 0
0.298424 -0.182874 0 0
0.303958 -0.192898 0 0
0.309249 -0.203138 0 0
0.314291 -0.213592 0 0
0.319078 -0.224252 0 0
0.323607 -0.235114 0 0
0.327871 -0.246172 0 0
0.331865 -0.257421 0 0
0.335585 -0.268854 0 0
0.339026 -0.280467 0 0
0.342183 -0.292252 0 0
0.345051 -0.304203 0 0
0.347627 -0.316316 0 0
0.349905 -0.328583 0 0
0.351882 -0.340997 0 0
0.353553 -0.353553 0 0
0.354916 -0.366244 0 0
0.355964 -0.379064 0 0
0.356697 -0.392004 0 0
0.357108 -0.405060 0 0
0.357196 -0.418223 0 0
0.356957 -0.431487 0 0
0.356388 -0.444845 0 0
0.355486 -0.458290 0 0
0.354248 -0.471814 0 0
0.352671 -0.485410 0 0
0.350753 -0.499071 0 0
0.348492 -0.512790 0 0
0.345884 -0.526559 0 0
0.342929 -0.540370 0 0
0.339624 -0.554216 0 0
0.335967 -0.568090 0 0
0.331957 -0.581983 0 0
0.327592 -0.595889 0 0
0.322872 -0.609798 0 0
0.317793 -0.623705 0 0
0.312357 -0.637600 0 0
0.306561 -0.651475 0 0
0.300405 -0.665324 0 0
0.293889 -0.679138 0 0
0.287013 -0.692910 0 0
0.279775 -0.706630 0 0
0.272176 -0.720292 0 0
0.264216 -0.733887 0 0
0.255895 -0.747407 0 0
0.247214 -0.760845 0 0
0.238173 -0.774192 0 0
0.228773 -0.787441 0 0
0.219015 -0.800583 0 0
0.208900 -0.813610 0 0
0.198429 -0.826514 0 0
0.187603 -0.839288 0 0
0.176425 -0.851924 0 0
0.164896 -0.864413 0 0
0.153017 -0.876747 0 0
0.140791 -0.888920 0 0
0.128220 -0.900922 0 0
0.115307 -0.912746 0 0
0.102053 -0.924384 0 0
0.088462 -0.935828 0 0
0.074536 -0.947071 0 0
0.060279 -0.958106 0 0
0.045693 -0.968923 0 0
0.030783 -0.979516 0 0
0.015550 -0.989878 0 0
0.000000 -1.000000 0 0
0.000000 0.000000 0 1
0.009999 -0.000105 0 1
0.019996 -0.000419 0 1
0.029985 -0.000942 0 1
0.039965 -0.001675 0 1
0.049931 -0.002617 0 1
0.059882 -0.003767 0 1
0.069812 -0.005127 0 1
0.079719 -0.006694 0 1
0.089601 -0.008470 0 1
0.099452 -0.010453 0 1
0.109271 -0.012643 0 1
0.119054 -0.015040 0 1
0.128797 -0.017643 0 1
0.138498 -0.020452 0 1
0.148153 -0.023465 0 1
0.157759 -0.026683 0 1
0.167313 -0.030104 0 1
0.176812 -0.033729 0 1
0.186252 -0.037555 0 1
0.195630 -0.041582 0 1
0.204943 -0.045810 0 1
0.214187 -0.050237 0 1
0.223361 -0.054863 0 1
0.232460 -0.059686 0 1
0.241481 -0.064705 0 1
0.250422 -0.069919 0 1
0.259279 -0.075328 0 1
0.268049 -0.080929 0 1
0.276730 -0.086722 0 1
0.285317 -0.092705 0 1
0.293808 -0.098877 0 1
0.302200 -0.105237 0 1
0.310491 -0.111784 0 1
0.318676 -0.118514 0 1
0.326753 -0.125429 0 1
0.334720 -0.132525 0 1
0.342572 -0.139801 0 1
0.350308 -0.147256 0 1
0.357924 -0.154888 0 1
0.365418 -0.162695 0 1
0.372787 -0.170675 0 1
0.380027 -0.178827 0 1
0.387137 -0.187149 0 1
0.394113 -0.195639 0 1
0.400953 -0.204296 0 1
0.407654 -0.213116 0 1
0.414213 -0.222099 0 1
0.420627 -0.231242 0 1
0.426895 -0.240543 0 1
0.433013 -0.250000 0 1
0.438978 -0.259611 0 1
0.444789 -0.269374 0 1
0.450443 -0.279287 0 1
0.455937 -0.289346 0 1
0.461269 -0.299551 0 1
0.466436 -0.309899 0 1
0.471436 -0.320388 0 1
0.476267 -0.331014 0 1
0.480925 -0.341776 0 1
0.485410 -0.352671 0 1
0.489719 -0.363697 0 1
0.493849 -0.374851 0 1
0.497798 -0.386131 0 1
0.501564 -0.397535 0 1
0.505145 -0.409058 0 1
0.508539 -0.420700 0 1
0.511743 -0.432457 0 1
0.514757 -0.444326 0 1
0.517577 -0.456305 0 1
0.520201 -0.468391 0 1
0.522629 -0.480582 0 1
0.524857 -0.492874 0 1
0.526885 -0.505265 0 1
0.528710 -0.517751 0 1
0.530330 -0.530330 0 1
0.531744 -0.542999 0 1
0.532950 -0.555755 0 1
0.533947 -0.568596 0 1
0.534732 -0.581517 0 1
0.535304 -0.594516 0 1
0.535663 -0.607590 0 1
0.535805 -0.620736 0 1
0.535730 -0.633951 0 1
0.535436 -0.647231 0 1
0.534922 -0.660574 0 1
0.534187 -0.673976 0 1
0.533229 -0.687435 0 1
0.532047 -0.700946 0 1
0.530640 -0.714508 0 1
0.529007 -0.728115 0 1
0.527146 -0.741766 0 1
0.525056 -0.755457 0 1
0.522738 -0.769185 0 1
0.520188 -0.782946 0 1
0.517407 -0.796737 0 1
0.514394 -0.810555 0 1
0.511147 -0.824396 0 1
0.507666 -0.838257 0 1
0.503951 -0.852135 0 1
0.500000 -0.866025 0 1
0.000000 0.000000 0 2
0.010000 -0.000052 0 2
0.019999 -0.000209 0 2
0.029996 -0.000471 0 2
0.039991 -0.000838 0 2
0.049983 -0.001309 0 2
0.059970 -0.001885 0 2
0.069953 -0.002565 0 2
0.079930 -0.003350 0 2
0.089900 -0.004240 0 2
0.099863 -0.005234 0 2
0.109818 -0.006332 0 2
0.119763 -0.007535 0 2
0.129699 -0.008842 0 2
0.139624 -0.010253 0 2
0.149538 -0.011769 0 2
0.159439 -0.013388 0 2
0.169327 -0.015112 0 2
0.179201 -0.016939 0 2
0.189061 -0.018871 0 2
0.198904 -0.020906 0 2
0.208732 -0.023044 0 2
0.218542 -0.025286 0 2
0.228334 -0.027631 0 2
0.238108 -0.030080 0 2
0.247861 -0.032632 0 2
0.257594 -0.035286 0 2
0.267306 -0.038043 0 2
0.276996 -0.040903 0 2
0.286663 -0.043866 0 2
0.296307 -0.046930 0 2
0.305925 -0.050097 0 2
0.315519 -0.053366 0 2
0.325086 -0.056737 0 2
0.334627 -0.060209 0 2
0.344139 -0.063782 0 2
0.353623 -0.067457 0 2
0.363078 -0.071233 0 2
0.372503 -0.075110 0 2
0.381897 -0.079087 0 2
0.391259 -0.083165 0 2
0.400589 -0.087342 0 2
0.409885 -0.091620 0 2
0.419147 -0.095998 0 2
0.428375 -0.100474 0 2
0.437566 -0.105050 0 2
0.446722 -0.109725 0 2
0.455840 -0.114499 0 2
0.464920 -0.119371 0 2
0.473961 -0.124341 0 2
0.482963 -0.129410 0 2
0.491924 -0.134575 0 2
0.500845 -0.139838 0 2
0.509723 -0.145198 0 2
0.518559 -0.150655 0 2
0.527351 -0.156208 0 2
0.536099 -0.161858 0 2
0.544802 -0.167603 0 2
0.553459 -0.173444 0 2
0.562070 -0.179380 0 2
0.570634 -0.185410 0 2
0.579150 -0.191535 0 2
0.587616 -0.197755 0 2
0.596034 -0.204068 0 2
0.604401 -0.210475 0 2
0.612717 -0.216974 0 2
0.620981 -0.223567 0 2
0.629193 -0.230252 0 2
0.637352 -0.237029 0 2
0.645456 -0.243898 0 2
0.653506 -0.250858 0 2
0.661501 -0.257908 0 2
0.669439 -0.265050 0 2
0.677320 -0.272281 0 2
0.685144 -0.279602 0 2
0.692910 -0.287013 0 2
0.700616 -0.294512 0 2
0.708263 -0.302100 0 2
0.715849 -0.309775 0 2
0.723373 -0.317539 0 2
0.730836 -0.325389 0 2
0.738237 -0.333327 0 2
0.745574 -0.341350 0 2
0.752847 -0.349460 0 2
0.760055 -0.357655 0 2
0.767197 -0.365934 0 2
0.774274 -0.374299 0 2
0.781284 -0.382747 0 2
0.788226 -0.391279 0 2
0.795101 -0.399894 0 2
0.801906 -0.408591 0 2
0.808642 -0.417371 0 2
0.815307 -0.426232 0 2
0.821902 -0.435175 0 2
0.828425 -0.444198 0 2
0.834876 -0.453301 0 2
0.841254 -0.462484 0 2
0.847559 -0.471745 0 2
0.853790 -0.481086 0 2
0.859945 -0.490504 0 2
0.866025 -0.500000 0 2
0.000000 0.000000 0 3
0.010000 0.000000 0 3
0.020000 0.000000 0 3
0.030000 0.000000 0 3
0.040000 0.000000 0 3
0.050000 0.000000 0 3
0.060000 0.000000 0 3
0.070000 0.000000 0 3
0.080000 0.000000 0 3
0.090000 0.000000 0 3
0.100000 0.000000 0 3
0.110000 0.000000 0 3
0.120000 0.000000 0 3
0.130000 0.000000 0 3
0.140000 0.000000 0 3
0.150000 0.000000 0 3
0.160000 0.000000 0 3
0.170000 0.000000 0 3
0.180000 0.000000 0 3
0.190000 0.000000 0 3
0.200000 0.000000 0 3
0.210000 0.000000 0 3
0.220000 0.000000 0 3
0.230000 0.000000 0 3
0.240000 0.000000 0 3
0.250000 0.000000 0 3
0.260000 0.000000 0 3
0.270000 0.000000 0 3
0.280000 0.000000 0 3
0.290000 0.000000 0 3
0.300000 0.000000 0 3
0.310000 0.000000 0 3
0.320000 0.000000 0 3
0.330000 0.000000 0 3
0.340000 0.000000 0 3
0.350000 0.000000 0 3
0.360000 0.000000 0 3
0.370000 0.000000 0 3
0.380000 0.000000 0 3
0.390000 0.000000 0 3
0.400000 0.000000 0 3
0.410000 0.000000 0 3
0.420000 0.000000 0 3
0.430000 0.000000 0 3
0.440000 0.000000 0 3
0.450000 0.000000 0 3
0.460000 0.000000 0 3
0.470000 0.000000 0 3
0.480000 0.000000 0 3
0.490000 0.000000 0 3
0.500000 0.000000 0 3
0.510000 0.000000 0 3
0.520000 0.000000 0 3
0.530000 0.000000 0 3
0.540000 0.000000 0 3
0.550000 0.000000 0 3
0.560000 0.000000 0 3
0.570000 0.000000 0 3
0.580000 0.000000 0 3
0.590000 0.000000 0 3
0.600000 0.000000 0 3
0.610000 0.000000 0 3
0.620000 0.000000 0 3
0.630000 0.000000 0 3
0.640000 0.000000 0 3
0.650000 0.000000 0 3
0.660000 0.000000 0 3
0.670000 0.000000 0 3
0.680000 0.000000 0 3
0.690000 0.000000 0 3
0.700000 0.000000 0 3
0.710000 0.000000 0 3
0.720000 0.000000 0 3
0.730000 0.000000 0 3
0.740000 0.000000 0 3
0.750000 0.000000 0 3
0.760000 0.000000 0 3
0.770000 0.000000 0 3
0.780000 0.000000 0 3
0.790000 0.000000 0 3
0.800000 0.000000 0 3
0.810000 0.000000 0 3
0.820000 0.000000 0 3
0.830000 0.000000 0 3
0.840000 0.000000 0 3
0.850000 0.000000 0 3
0.860000 0.000000 0 3
0.870000 0.000000 0 3
0.880000 0.000000 0 3
0.890000 0.000000 0 3
0.900000 0.000000 0 3
0.910000 0.000000 0 3
0.920000 0.000000 0 3
0.930000 0.000000 0 3
0.940000 0.000000 0 3
0.950000 0.000000 0 3
0.960000 0.000000 0 3
0.970000 0.000000 0 3
0.980000 0.000000 0 3
0.990000 0.000000 0 3
1.000000 0.000000 0 3
0.000000 0.000000 0 4
0.010000 0.000052 0 4
0.019999 0.000209 0 4
0.029996 0.000471 0 4
0.039991 0.000838 0 4
0.049983 0.001309 0 4
0.059970 0.001885 0 4
0.069953 0.002565 0 4
0.079930 0.003350 0 4
0.089900 0.004240 0 4
0.099863 0.005234 0 4
0.109818 0.006332 0 4
0.119763 0.007535 0 4
0.129699 0.008842 0 4
0.139624 0.010253 0 4
0.149538 0.011769 0 4
0.159439 0.013388 0 4
0.169327 0.015112 0 4
0.179201 0.016939 0 4
0.189061 0.018871 0 4
0.198904 0.020906 0 4
0.208732 0.023044 0 4
0.218542 0.025286 0 4
0.228334 0.027631 0 4
0.238108 0.030080 0 4
0.247861 0.032632 0 4
0.257594 0.035286 0 4
0.267306 0.038043 0 4
0.276996 0.040903 0 4
0.286663 0.043866 0 4
0.296307 0.046930 0 4
0.305925 0.050097 0 4
0.315519 0.053366 0 4
0.325086 0.056737 0 4
0.334627 0.060209 0 4
0.344139 0.063782 0 4
0.353623 0.067457 0 4
0.363078 0.071233 0 4
0.372503 0.075110 0 4
0.381897 0.079087 0 4
0.391259 0.083165 0 4
0.400589 0.087342 0 4
0.409885 0.091620 0 4
0.419147 0.095998 0 4
0.428375 0.100474 0 4
0.437566 0.105050 0 4
0.446722 0.109725 0 4
0.455840 0.114499 0 4
0.464920 0.119371 0 4
0.473961 0.124341 0 4
0.482963 0.129410 0 4
0.491924 0.134575 0 4
0.500845 0.139838 0 4
0.509723 0.145198 0 4
0.518559 0.150655 0 4
0.527351 0.156208 0 4
0.536099 0.161858 0 4
0.544802 0.167603 0 4
0.553459 0.173444 0 4
0.562070 0.179380 0 4
0.570634 0.185410 0 4
0.579150 0.191535 0 4
0.587616 0.197755 0 4
0.596034 0.204068 0 4
0.604401 0.210475 0 4
0.612717 0.216974 0 4
0.620981 0.223567 0 4
0.629193 0.230252 0 4
0.637352 0.237029 0 4
0.645456 0.243898 0 4
0.653506 0.250858 0 4
0.661501 0.257908 0 4
0.669439 0.265050 0 4
0.677320 0.272281 0 4
0.685144 0.279602 0 4
0.692910 0.287013 0 4
0.700616 0.294512 0 4
0.708263 0.302100 0 4
0.715849 0.309775 0 4
0.723373 0.317539 0 4
0.730836 0.325389 0 4
0.738237 0.333327 0 4
0.745574 0.341350 0 4
0.752847 0.349460 0 4
0.760055 0.357655 0 4
0.767197 0.365934 0 4
0.774274 0.374299 0 4
0.781284 0.382747 0 4
0.788226 0.391279 0 4
0.795101 0.399894 0 4
0.801906 0.408591 0 4
0.808642 0.417371 0 4
0.815307 0.426232 0 4
0.821902 0.435175 0 4
0.828425 0.444198 0 4
0.834876 0.453301 0 4
0.841254 0.462484 0 4
0.847559 0.471745 0 4
0.853790 0.481086 0 4
0.859945 0.490504 0 4
0.866025 0.500000 0 4
0.000000 0.000000 0 5
0.009999 0.000105 0 5
0.019996 0.000419 0 5
0.029985 0.000942 0 5
0.039965 0.001675 0 5
0.049931 0.002617 0 5
0.059882 0.003767 0 5
0.069812 0.005127 0 5
0.079719 0.006694 0 5
0.089601 0.008470 0 5
0.099452 0.010453 0 5
0.109271 0.012643 0 5
0.119054 0.015040 0 5
0.128797 0.017643 0 5
0.138498 0.020452 0 5
0.148153 0.023465 0 5
0.157759 0.026683 0 5
0.167313 0.030104 0 5
0.176812 0.033729 0 5
0.186252 0.037555 0 5
0.195630 0.041582 0 5
0.204943 0.045810 0 5
0.214187 0.050237 0 5
0.223361 0.054863 0 5
0.232460 0.059686 0 5
0.241481 0.064705 0 5
0.250422 0.069919 0 5
0.259279 0.075328 0 5
0.268049 0.080929 0 5
0.276730 0.086722 0 5
0.285317 0.092705 0 5
0.293808 0.098877 0 5
0.302200 0.105237 0 5
0.310491 0.111784 0 5
0.318676 0.118514 0 5
0.326753 0.125429 0 5
0.334720 0.132525 0 5
0.342572 0.139801 0 5
0.350308 0.147256 0 5
0.357924 0.154888 0 5
0.365418 0.162695 0 5
0.372787 0.170675 0 5
0.380027 0.178827 0 5
0.387137 0.187149 0 5
0.394113 0.195639 0 5
0.400953 0.204296 0 5
0.407654 0.213116 0 5
0.414213 0.222099 0 5
0.420627 0.231242 0 5
0.426895 0.240543 0 5
0.433013 0.250000 0 5
0.438978 0.259611 0 5
0.444789 0.269374 0 5
0.450443 0.279287 0 5
0.455937 0.289346 0 5
0.461269 0.299551 0 5
0.466436 0.309899 0 5
0.471436 0.320388 0 5
0.476267 0.331014 0 5
0.480925 0.341776 0 5
0.485410 0.352671 0 5
0.489719 0.363697 0 5
0.493849 0.374851 0 5
0.497798 0.386131 0 5
0.501564 0.397535 0 5
0.505145 0.409058 0 5
0.508539 0.420700 0 5
0.511743 0.432457 0 5
0.514757 0.444326 0 5
0.517577 0.456305 0 5
0.520201 0.468391 0 5
0.522629 0.480582 0 5
0.524857 0.492874 0 5
0.526885 0.505265 0 5
0.528710 0.517751 0 5
0.530330 0.530330 0 5
0.531744 0.542999 0 5
0.532950 0.555755 0 5
0.533947 0.568596 0 5
0.534732 0.581517 0 5
0.535304 0.594516 0 5
0.535663 0.607590 0 5
0.535805 0.620736 0 5
0.535730 0.633951 0 5
0.535436 0.647231 0 5
0.534922 0.660574 0 5
0.534187 0.673976 0 5
0.533229 0.687435 0 5
0.532047 0.700946 0 5
0.530640 0.714508 0 5
0.529007 0.728115 0 5
0.527146 0.741766 0 5
0.525056 0.755457 0 5
0.522738 0.769185 0 5
0.520188 0.782946 0 5
0.517407 0.796737 0 5
0.514394 0.810555 0 5
0.511147 0.824396 0 5
0.507666 0.838257 0 5
0.503951 0.852135 0 5
0.500000 0.866025 0 5
0.000000 0.000000 0 6
0.009999 0.000157 0 6
0.019990 0.000628 0 6
0.029967 0.001413 0 6
0.039921 0.002512 0 6
0.049846 0.003923 0 6
0.059734 0.005646 0 6
0.069577 0.007681 0 6
0.079369 0.010027 0 6
0.089102 0.012681 0 6
0.098769 0.015643 0 6
0.108362 0.018912 0 6
0.117874 0.022486 0 6
0.127299 0.026362 0 6
0.136628 0.030540 0 6
0.145855 0.035017 0 6
0.154973 0.039790 0 6
0.163975 0.044858 0 6
0.172853 0.050218 0 6
0.181601 0.055868 0 6
0.190211 0.061803 0 6
0.198678 0.068023 0 6
0.206994 0.074522 0 6
0.215152 0.081299 0 6
0.223146 0.088350 0 6
0.230970 0.095671 0 6
0.238616 0.103258 0 6
0.246079 0.111109 0 6
0.253352 0.119218 0 6
0.260428 0.127582 0 6
0.267302 0.136197 0 6
0.273967 0.145058 0 6
0.280418 0.154161 0 6
0.286648 0.163501 0 6
0.292652 0.173074 0 6
0.298424 0.182874 0 6
0.303958 0.192898 0 6
0.309249 0.203138 0 6
0.314291 0.213592 0 6
0.319078 0.224252 0 6
0.323607 0.235114 0 6
0.327871 0.246172 0 6
0.331865 0.257421 0 6
0.335585 0.268854 0 6
0.339026 0.280467 0 6
0.342183 0.292252 0 6
0.345051 0.304203 0 6
0.347627 0.316316 0 6
0.349905 0.328583 0 6
0.351882 0.340997 0 6
0.353553 0.353553 0 6
0.354916 0.366244 0 6
0.355964 0.379064 0 6
0.356697 0.392004 0 6
0.357108 0.405060 0 6
0.357196 0.418223 0 6
0.356957 0.431487 0 6
0.356388 0.444845 0 6
0.355486 0.458290 0 6
0.354248 0.471814 0 6
0.352671 0.485410 0 6
0.350753 0.499071 0 6
0.348492 0.512790 0 6
0.345884 0.526559 0 6
0.342929 0.540370 0 6
0.339624 0.554216 0 6
0.335967 0.568090 0 6
0.331957 0.581983 0 6
0.327592 0.595889 0 6
0.322872 0.609798 0 6
0.317793 0.623705 0 6
0.312357 0.637600 0 6
0.306561 0.651475 0 6
0.300405 0.665324 0 6
0.293889 0.679138 0 6
0.287013 0.692910 0 6
0.279775 0.706630 0 6
0.272176 0.720292 0 6
0.264216 0.733887 0 6
0.255895 0.747407 0 6
0.247214 0.760845 0 6
0.238173 0.774192 0 6
0.228773 0.787441 0 6
0.219015 0.800583 0 6
0.208900 0.813610 0 6
0.198429 0.826514 0 6
0.187603 0.839288 0 6
0.176425 0.851924 0 6
0.164896 0.864413 0 6
0.153017 0.876747 0 6
0.140791 0.888920 0 6
0.128220 0.900922 0 6
0.115307 0.912746 0 6
0.102053 0.924384 0 6
0.088462 0.935828 0 6
0.074536 0.947071 0 6
0.060279 0.958106 0 6
0.045693 0.968923 0 6
0.030783 0.979516 0 6
0.015550 0.989878 0 6
0.000000 1.000000 0 6
